name analog
datacolumns 19
datarows 64
range 0.5585 0.59
endheader
time	ground_force_vx	ground_force_vy	ground_force_vz	ground_force_px	ground_force_py	ground_force_pz	l_ground_force_vx	l_ground_force_vy	l_ground_force_vz	l_ground_force_px	l_ground_force_py	l_ground_force_pz	ground_torque_x	ground_torque_y	ground_torque_z	l_ground_torque_x	l_ground_torque_y	l_ground_torque_z
0.5585	-0.0	-0.0	-0.0	0.3488653600215912	-10.032398223876951	-646.6941528320312	-0.0	-0.0	-0.0	-0.0	-0.0	-0.0	-0.0	-0.0	-0.0	-0.0	-0.0	-0.0
0.559	-0.0	-0.0	-0.0	1.8547965288162231	-9.822951316833496	-625.9000244140625	-0.0	-0.0	-0.0	-0.0	-0.0	-0.0	-0.0	-0.0	-0.0	-0.0	-0.0	-0.0
0.5595	-0.0	-0.0	-0.0	3.468890428543091	-9.605463027954102	-605.5402221679688	-0.0	-0.0	-0.0	-0.0	-0.0	-0.0	-0.0	-0.0	-0.0	-0.0	-0.0	-0.0
0.56	-0.0	-0.0	-0.0	5.472616195678711	-8.724530220031738	-589.1385498046875	-0.0	-0.0	-0.0	-0.0	-0.0	-0.0	-0.0	-0.0	-0.0	-0.0	-0.0	-0.0
0.5605	-0.0	-0.0	-0.0	6.978809356689453	-8.52723217010498	-573.7559204101562	-0.0	-0.0	-0.0	-0.0	-0.0	-0.0	-0.0	-0.0	-0.0	-0.0	-0.0	-0.0
0.561	-0.0	-0.0	-0.0	7.107418537139893	-7.694610595703125	-561.4358520507812	-0.0	-0.0	-0.0	-0.0	-0.0	-0.0	-0.0	-0.0	-0.0	-0.0	-0.0	-0.0
0.5615	-0.0	-0.0	-0.0	7.414521217346191	-7.308692932128906	-551.8213500976562	-0.0	-0.0	-0.0	-0.0	-0.0	-0.0	-0.0	-0.0	-0.0	-0.0	-0.0	-0.0
0.562	-0.0	-0.0	-0.0	7.503679752349853	-7.269121646881103	-544.603515625	-0.0	-0.0	-0.0	-0.0	-0.0	-0.0	-0.0	-0.0	-0.0	-0.0	-0.0	-0.0
0.5625	-0.0	-0.0	-0.0	8.266858100891113	-6.912563800811768	-539.9728393554688	-0.0	-0.0	-0.0	-0.0	-0.0	-0.0	-0.0	-0.0	-0.0	-0.0	-0.0	-0.0
0.5630000000000001	-0.0	-0.0	-0.0	9.773476600646973	-6.229010105133057	-537.499755859375	-0.0	-0.0	-0.0	-0.0	-0.0	-0.0	-0.0	-0.0	-0.0	-0.0	-0.0	-0.0
0.5635	-0.0	-0.0	-0.0	10.308716773986816	-4.377664089202881	-534.9104614257812	-0.0	-0.0	-0.0	-0.0	-0.0	-0.0	-0.0	-0.0	-0.0	-0.0	-0.0	-0.0
0.5640000000000001	-0.0	-0.0	-0.0	10.70526123046875	-3.2986295223236084	-538.95263671875	-0.0	-0.0	-0.0	-0.0	-0.0	-0.0	-0.0	-0.0	-0.0	-0.0	-0.0	-0.0
0.5645	-0.0	-0.0	-0.0	10.972892761230469	-1.91147780418396	-540.2078247070312	-0.0	-0.0	-0.0	-0.0	-0.0	-0.0	-0.0	-0.0	-0.0	-0.0	-0.0	-0.0
0.5650000000000001	-0.0	-0.0	-0.0	10.200190544128418	-0.8323386311531067	-546.7605590820312	-0.0	-0.0	-0.0	-0.0	-0.0	-0.0	-0.0	-0.0	-0.0	-0.0	-0.0	-0.0
0.5655	-0.0	-0.0	-0.0	9.735175132751465	-0.1704258322715759	-554.1771240234375	-0.0	-0.0	-0.0	-0.0	-0.0	-0.0	-0.0	-0.0	-0.0	-0.0	-0.0	-0.0
0.5660000000000001	-0.0	-0.0	-0.0	9.763819694519045	1.0884737968444824	-560.2557373046875	-0.0	-0.0	-0.0	-0.0	-0.0	-0.0	-0.0	-0.0	-0.0	-0.0	-0.0	-0.0
0.5665	-0.0	-0.0	-0.0	9.287303924560549	2.397118330001831	-572.22607421875	-0.0	-0.0	-0.0	-0.0	-0.0	-0.0	-0.0	-0.0	-0.0	-0.0	-0.0	-0.0
0.5670000000000001	-0.0	-0.0	-0.0	9.099472045898438	3.61444616317749	-585.646240234375	-0.0	-0.0	-0.0	-0.0	-0.0	-0.0	-0.0	-0.0	-0.0	-0.0	-0.0	-0.0
0.5675	-0.0	-0.0	-0.0	8.139598846435547	4.198385715484619	-598.1170654296875	-0.0	-0.0	-0.0	-0.0	-0.0	-0.0	-0.0	-0.0	-0.0	-0.0	-0.0	-0.0
0.5680000000000001	-0.0	-0.0	-0.0	6.564761638641357	3.9800965785980233	-613.65576171875	-0.0	-0.0	-0.0	-0.0	-0.0	-0.0	-0.0	-0.0	-0.0	-0.0	-0.0	-0.0
0.5685	-0.0	-0.0	-0.0	5.4327006340026855	4.04173469543457	-631.27734375	-0.0	-0.0	-0.0	-0.0	-0.0	-0.0	-0.0	-0.0	-0.0	-0.0	-0.0	-0.0
0.5690000000000001	-0.0	-0.0	-0.0	4.790163993835449	3.707237958908081	-644.4156494140625	-0.0	-0.0	-0.0	-0.0	-0.0	-0.0	-0.0	-0.0	-0.0	-0.0	-0.0	-0.0
0.5695	-0.0	-0.0	-0.0	4.5587310791015625	3.4581117630004883	-662.691650390625	-0.0	-0.0	-0.0	-0.0	-0.0	-0.0	-0.0	-0.0	-0.0	-0.0	-0.0	-0.0
0.5700000000000001	-0.0	-0.0	-0.0	3.626440048217773	2.593716621398926	-678.4241333007812	-0.0	-0.0	-0.0	-0.0	-0.0	-0.0	-0.0	-0.0	-0.0	-0.0	-0.0	-0.0
0.5705	-0.0	-0.0	-0.0	2.587104797363281	1.6444814205169678	-695.3927001953125	-0.0	-0.0	-0.0	-0.0	-0.0	-0.0	-0.0	-0.0	-0.0	-0.0	-0.0	-0.0
0.5710000000000001	-0.0	-0.0	-0.0	1.6196043491363523	0.9892236590385436	-712.3440551757812	-0.0	-0.0	-0.0	-0.0	-0.0	-0.0	-0.0	-0.0	-0.0	-0.0	-0.0	-0.0
0.5715	-0.0	-0.0	-0.0	1.453602313995361	0.1380640417337417	-727.9523315429688	-0.0	-0.0	-0.0	-0.0	-0.0	-0.0	-0.0	-0.0	-0.0	-0.0	-0.0	-0.0
0.5720000000000001	-0.0	-0.0	-0.0	1.3381576538085938	-1.2162564992904663	-743.7527465820312	-0.0	-0.0	-0.0	-0.0	-0.0	-0.0	-0.0	-0.0	-0.0	-0.0	-0.0	-0.0
0.5725	-0.0	-0.0	-0.0	1.1597366333007812	-1.377225637435913	-757.9581909179688	-0.0	-0.0	-0.0	-0.0	-0.0	-0.0	-0.0	-0.0	-0.0	-0.0	-0.0	-0.0
0.5730000000000001	-0.0	-0.0	-0.0	0.3886162936687469	-2.2050607204437256	-770.0919189453125	-0.0	-0.0	-0.0	-0.0	-0.0	-0.0	-0.0	-0.0	-0.0	-0.0	-0.0	-0.0
0.5735	-0.0	-0.0	-0.0	0.0084811374545097	-2.4787042140960693	-779.8884887695312	-0.0	-0.0	-0.0	-0.0	-0.0	-0.0	-0.0	-0.0	-0.0	-0.0	-0.0	-0.0
0.5740000000000001	-0.0	-0.0	-0.0	-0.8096626400947571	-2.049999237060547	-791.2562255859375	-0.0	-0.0	-0.0	-0.0	-0.0	-0.0	-0.0	-0.0	-0.0	-0.0	-0.0	-0.0
0.5745	-0.0	-0.0	-0.0	-1.168092966079712	-2.504000186920166	-800.984375	-0.0	-0.0	-0.0	-0.0	-0.0	-0.0	-0.0	-0.0	-0.0	-0.0	-0.0	-0.0
0.5750000000000001	-0.0	-0.0	-0.0	-1.9387346506118772	-2.2530882358551025	-806.149658203125	-0.0	-0.0	-0.0	-0.0	-0.0	-0.0	-0.0	-0.0	-0.0	-0.0	-0.0	-0.0
0.5755	-0.0	-0.0	-0.0	-2.9280786514282227	-0.9235643744468688	-810.227294921875	-0.0	-0.0	-0.0	-0.0	-0.0	-0.0	-0.0	-0.0	-0.0	-0.0	-0.0	-0.0
0.5760000000000001	-0.0	-0.0	-0.0	-3.446828603744507	0.3646636009216308	-814.6256713867188	-0.0	-0.0	-0.0	-0.0	-0.0	-0.0	-0.0	-0.0	-0.0	-0.0	-0.0	-0.0
0.5765	-0.0	-0.0	-0.0	-4.96331262588501	1.5394532680511477	-817.4509887695312	-0.0	-0.0	-0.0	-0.0	-0.0	-0.0	-0.0	-0.0	-0.0	-0.0	-0.0	-0.0
0.577	-0.0	-0.0	-0.0	-5.084999084472656	2.722480297088623	-818.2840576171875	-0.0	-0.0	-0.0	-0.0	-0.0	-0.0	-0.0	-0.0	-0.0	-0.0	-0.0	-0.0
0.5775	-0.0	-0.0	-0.0	-4.623999118804932	4.018801212310791	-818.2550659179688	-0.0	-0.0	-0.0	-0.0	-0.0	-0.0	-0.0	-0.0	-0.0	-0.0	-0.0	-0.0
0.578	-0.0	-0.0	-0.0	-4.4605255126953125	5.299318313598633	-815.2017822265625	-0.0	-0.0	-0.0	-0.0	-0.0	-0.0	-0.0	-0.0	-0.0	-0.0	-0.0	-0.0
0.5785	-0.0	-0.0	-0.0	-4.590433597564697	7.324309825897217	-811.9297485351562	-0.0	-0.0	-0.0	-0.0	-0.0	-0.0	-0.0	-0.0	-0.0	-0.0	-0.0	-0.0
0.579	-0.0	-0.0	-0.0	-4.541993618011475	9.147469520568848	-808.3062133789062	-0.0	-0.0	-0.0	-0.0	-0.0	-0.0	-0.0	-0.0	-0.0	-0.0	-0.0	-0.0
0.5795	-0.0	-0.0	-0.0	-4.695087432861328	10.077112197875977	-806.1180419921875	-0.0	-0.0	-0.0	-0.0	-0.0	-0.0	-0.0	-0.0	-0.0	-0.0	-0.0	-0.0
0.58	-0.0	-0.0	-0.0	-4.99578857421875	10.31358814239502	-803.5748291015625	-0.0	-0.0	-0.0	-0.0	-0.0	-0.0	-0.0	-0.0	-0.0	-0.0	-0.0	-0.0
0.5805	-0.0	-0.0	-0.0	-5.054821014404297	9.503694534301758	-802.2930297851562	-0.0	-0.0	-0.0	-0.0	-0.0	-0.0	-0.0	-0.0	-0.0	-0.0	-0.0	-0.0
0.581	-0.0	-0.0	-0.0	-4.988288402557373	9.017156600952148	-800.850341796875	-0.0	-0.0	-0.0	-0.0	-0.0	-0.0	-0.0	-0.0	-0.0	-0.0	-0.0	-0.0
0.5815	-0.0	-0.0	-0.0	-4.007045745849609	8.775634765625	-800.6295166015625	-0.0	-0.0	-0.0	-0.0	-0.0	-0.0	-0.0	-0.0	-0.0	-0.0	-0.0	-0.0
0.582	-0.0	-0.0	-0.0	-3.4235732555389404	8.686540603637695	-797.15625	-0.0	-0.0	-0.0	-0.0	-0.0	-0.0	-0.0	-0.0	-0.0	-0.0	-0.0	-0.0
0.5825	-0.0	-0.0	-0.0	-2.654407501220703	8.481980323791504	-797.4224853515625	-0.0	-0.0	-0.0	-0.0	-0.0	-0.0	-0.0	-0.0	-0.0	-0.0	-0.0	-0.0
0.583	-0.0	-0.0	-0.0	-2.0590715408325195	8.185550689697266	-795.5234985351562	-0.0	-0.0	-0.0	-0.0	-0.0	-0.0	-0.0	-0.0	-0.0	-0.0	-0.0	-0.0
0.5835	-0.0	-0.0	-0.0	-1.6129460334777832	8.1394681930542	-793.0797119140625	-0.0	-0.0	-0.0	-0.0	-0.0	-0.0	-0.0	-0.0	-0.0	-0.0	-0.0	-0.0
0.584	-0.0	-0.0	-0.0	-1.598694086074829	7.884496212005615	-792.1826171875	-0.0	-0.0	-0.0	-0.0	-0.0	-0.0	-0.0	-0.0	-0.0	-0.0	-0.0	-0.0
0.5845	-0.0	-0.0	-0.0	-1.2078577280044556	7.898578643798828	-789.1387939453125	-0.0	-0.0	-0.0	-0.0	-0.0	-0.0	-0.0	-0.0	-0.0	-0.0	-0.0	-0.0
0.585	-0.0	-0.0	-0.0	-0.8851462006568909	7.000212669372559	-786.9650268554688	-0.0	-0.0	-0.0	-0.0	-0.0	-0.0	-0.0	-0.0	-0.0	-0.0	-0.0	-0.0
0.5855	-0.0	-0.0	-0.0	-0.7891225218772888	6.924805641174316	-785.36376953125	-0.0	-0.0	-0.0	-0.0	-0.0	-0.0	-0.0	-0.0	-0.0	-0.0	-0.0	-0.0
0.586	-0.0	-0.0	-0.0	0.7617061734199524	7.843475341796875	-784.1954956054688	-0.0	-0.0	-0.0	-0.0	-0.0	-0.0	-0.0	-0.0	-0.0	-0.0	-0.0	-0.0
0.5865	-0.0	-0.0	-0.0	1.1597366333007812	8.295882225036621	-782.266845703125	-0.0	-0.0	-0.0	-0.0	-0.0	-0.0	-0.0	-0.0	-0.0	-0.0	-0.0	-0.0
0.587	-0.0	-0.0	-0.0	1.8254715204238887	8.913040161132812	-780.9073486328125	-0.0	-0.0	-0.0	-0.0	-0.0	-0.0	-0.0	-0.0	-0.0	-0.0	-0.0	-0.0
0.5875	-0.0	-0.0	-0.0	2.250192165374756	9.673967361450195	-778.4085693359375	-0.0	-0.0	-0.0	-0.0	-0.0	-0.0	-0.0	-0.0	-0.0	-0.0	-0.0	-0.0
0.588	-0.0	-0.0	-0.0	1.8865612745285036	10.476104736328123	-776.4270629882812	-0.0	-0.0	-0.0	-0.0	-0.0	-0.0	-0.0	-0.0	-0.0	-0.0	-0.0	-0.0
0.5885	-0.0	-0.0	-0.0	1.67313551902771	10.530370712280272	-774.73876953125	-0.0	-0.0	-0.0	-0.0	-0.0	-0.0	-0.0	-0.0	-0.0	-0.0	-0.0	-0.0
0.589	-0.0	-0.0	-0.0	1.5359153747558594	10.12596035003662	-772.3790283203125	-0.0	-0.0	-0.0	-0.0	-0.0	-0.0	-0.0	-0.0	-0.0	-0.0	-0.0	-0.0
0.5895	-0.0	-0.0	-0.0	1.4018774032592771	10.463272094726562	-771.6224975585938	-0.0	-0.0	-0.0	-0.0	-0.0	-0.0	-0.0	-0.0	-0.0	-0.0	-0.0	-0.0
0.59	-0.0	-0.0	-0.0	1.1597366333007812	10.256290435791016	-769.3152465820312	-0.0	-0.0	-0.0	-0.0	-0.0	-0.0	-0.0	-0.0	-0.0	-0.0	-0.0	-0.0
